<svg width="621" height="379" viewBox="0 0 621 379" fill="none" xmlns="http://www.w3.org/2000/svg">
<rect width="621" height="378.81" fill="white"/>
<path d="M53.75 64.6801H51.6875L51.6953 63.4926H53.75C54.4219 63.4926 54.9792 63.3676 55.4219 63.1176C55.8698 62.8676 56.2031 62.5108 56.4219 62.0472C56.6406 61.5785 56.75 61.0238 56.75 60.3832V59.8676C56.75 59.3728 56.6875 58.9327 56.5625 58.5472C56.4375 58.1618 56.2526 57.8389 56.0078 57.5785C55.763 57.3129 55.4583 57.1123 55.0938 56.9769C54.7344 56.8415 54.3177 56.7738 53.8438 56.7738H51.6406V55.5785H53.8438C54.4896 55.5785 55.0781 55.6801 55.6094 55.8832C56.1458 56.0811 56.6068 56.3702 56.9922 56.7504C57.3776 57.1254 57.6745 57.5785 57.8828 58.1097C58.0911 58.6358 58.1953 59.2269 58.1953 59.8832V60.3832C58.1953 61.253 58.0104 62.0108 57.6406 62.6566C57.276 63.3024 56.7604 63.8024 56.0938 64.1566C55.4323 64.5056 54.651 64.6801 53.75 64.6801ZM52.4766 55.5785V64.6801H51.0312V55.5785H52.4766ZM63.6797 56.8519L60.5781 64.6801H59.1016L62.8438 55.5785H63.7891L63.6797 56.8519ZM66.3594 64.6801L63.2812 56.8207L63.1797 55.5785H64.1328L67.8281 64.6801H66.3594ZM66.1484 61.3129V62.5004H60.7422V61.3129H66.1484ZM70.625 55.5785V64.6801H69.1797V55.5785H70.625ZM78.9062 63.4926V64.6801H74V63.4926H78.9062ZM74.3516 55.5785V64.6801H72.9062V55.5785H74.3516ZM82.375 60.891L85.2422 55.5785H86.8672L83.4688 61.5785H82.5859L82.375 60.891ZM80.3828 55.5785L83.2656 60.9301L83.0312 61.5785H82.1641L78.7578 55.5785H80.3828ZM83.5078 60.4379V64.6801H82.0703V60.4379H83.5078ZM95.6953 56.8519L92.5938 64.6801H91.1172L94.8594 55.5785H95.8047L95.6953 56.8519ZM98.375 64.6801L95.2969 56.8207L95.1953 55.5785H96.1484L99.8438 64.6801H98.375ZM98.1641 61.3129V62.5004H92.7578V61.3129H98.1641ZM106.828 61.7347H108.281C108.219 62.3233 108.039 62.8493 107.742 63.3129C107.451 63.7764 107.036 64.141 106.5 64.4066C105.969 64.6722 105.31 64.8051 104.523 64.8051C103.935 64.8051 103.404 64.7061 102.93 64.5082C102.456 64.3051 102.049 64.0186 101.711 63.6488C101.372 63.2738 101.112 62.8233 100.93 62.2972C100.747 61.7712 100.656 61.1827 100.656 60.5316V59.7347C100.656 59.0837 100.747 58.4952 100.93 57.9691C101.112 57.4431 101.375 56.9926 101.719 56.6176C102.062 56.2426 102.477 55.9561 102.961 55.7582C103.451 55.5551 103.997 55.4535 104.602 55.4535C105.362 55.4535 106.003 55.5863 106.523 55.8519C107.044 56.1123 107.451 56.4769 107.742 56.9457C108.039 57.4144 108.219 57.9535 108.281 58.5629H106.828C106.776 58.1618 106.669 57.8181 106.508 57.5316C106.346 57.2452 106.112 57.0264 105.805 56.8754C105.497 56.7191 105.096 56.641 104.602 56.641C104.19 56.641 103.828 56.7113 103.516 56.8519C103.203 56.9873 102.94 57.1905 102.727 57.4613C102.518 57.7269 102.359 58.0498 102.25 58.4301C102.146 58.8103 102.094 59.2426 102.094 59.7269V60.5316C102.094 60.9899 102.141 61.4092 102.234 61.7894C102.333 62.1644 102.482 62.4899 102.68 62.766C102.878 63.042 103.13 63.2556 103.438 63.4066C103.745 63.5524 104.107 63.6254 104.523 63.6254C105.044 63.6254 105.461 63.5524 105.773 63.4066C106.086 63.2608 106.323 63.0472 106.484 62.766C106.651 62.4795 106.766 62.1358 106.828 61.7347ZM113.727 55.5785V64.6801H112.289V55.5785H113.727ZM116.844 55.5785V56.7738H109.188V55.5785H116.844ZM119.812 55.5785V64.6801H118.367V55.5785H119.812ZM125.617 62.4066L128.117 55.5785H129.664L126.094 64.6801H124.984L125.617 62.4066ZM122.727 55.5785L125.211 62.3988L125.844 64.6801H124.734L121.164 55.5785H122.727ZM132.453 55.5785V64.6801H131.008V55.5785H132.453ZM138.508 55.5785V64.6801H137.07V55.5785H138.508ZM141.625 55.5785V56.7738H133.969V55.5785H141.625ZM145.797 60.891L148.664 55.5785H150.289L146.891 61.5785H146.008L145.797 60.891ZM143.805 55.5785L146.688 60.9301L146.453 61.5785H145.586L142.18 55.5785H143.805ZM146.93 60.4379V64.6801H145.492V60.4379H146.93Z" fill="black"/>
<path d="M505.996 57.6801H520.9" stroke="#863030" stroke-width="1.242"/>
<path d="M538.932 60.6454C538.932 60.4987 538.905 60.3675 538.852 60.2518C538.803 60.1362 538.716 60.0317 538.592 59.9383C538.472 59.8405 538.305 59.7493 538.091 59.6648C537.882 59.5803 537.618 59.5003 537.297 59.4247C536.835 59.3135 536.426 59.189 536.07 59.0511C535.719 58.9088 535.423 58.7442 535.183 58.5574C534.943 58.3707 534.76 58.1505 534.636 57.897C534.516 57.6435 534.456 57.3478 534.456 57.0098C534.456 56.6851 534.527 56.3894 534.669 56.1226C534.811 55.8513 535.014 55.6178 535.276 55.4221C535.539 55.222 535.85 55.0686 536.21 54.9618C536.57 54.8551 536.966 54.8017 537.398 54.8017C538.025 54.8017 538.569 54.904 539.032 55.1086C539.494 55.3132 539.852 55.5956 540.106 55.9558C540.364 56.3116 540.493 56.7252 540.493 57.1966H538.885C538.885 56.9742 538.827 56.7741 538.712 56.5962C538.6 56.4183 538.436 56.276 538.218 56.1693C538 56.0625 537.727 56.0092 537.398 56.0092C537.082 56.0092 536.822 56.0559 536.617 56.1492C536.412 56.2382 536.259 56.356 536.157 56.5028C536.059 56.6451 536.01 56.8008 536.01 56.9698C536.01 57.1032 536.039 57.2233 536.097 57.33C536.159 57.4367 536.257 57.5346 536.39 57.6235C536.524 57.7125 536.697 57.797 536.911 57.877C537.124 57.9571 537.384 58.0349 537.691 58.1105C538.149 58.2172 538.554 58.344 538.905 58.4907C539.256 58.6375 539.55 58.8109 539.786 59.0111C540.021 59.2067 540.197 59.438 540.313 59.7048C540.433 59.9672 540.493 60.2674 540.493 60.6054C540.493 60.9478 540.422 61.2547 540.279 61.526C540.137 61.7928 539.932 62.0196 539.666 62.2064C539.403 62.3932 539.087 62.5377 538.718 62.64C538.349 62.7379 537.938 62.7868 537.484 62.7868C537.084 62.7868 536.686 62.7379 536.29 62.64C535.899 62.5422 535.545 62.391 535.229 62.1864C534.914 61.9818 534.66 61.7217 534.469 61.4059C534.282 61.0857 534.189 60.7099 534.189 60.2785H535.803C535.803 60.5098 535.843 60.7099 535.923 60.8789C536.008 61.0435 536.126 61.1791 536.277 61.2858C536.432 61.3881 536.617 61.4637 536.83 61.5126C537.044 61.5616 537.28 61.586 537.538 61.586C537.862 61.586 538.127 61.5438 538.331 61.4593C538.54 61.3703 538.692 61.2547 538.785 61.1124C538.883 60.9701 538.932 60.8144 538.932 60.6454ZM546.63 60.0917H548.244C548.204 60.621 548.049 61.0879 547.777 61.4926C547.511 61.8973 547.137 62.2153 546.657 62.4466C546.176 62.6734 545.596 62.7868 544.916 62.7868C544.386 62.7868 543.911 62.7001 543.488 62.5266C543.07 62.3532 542.712 62.1064 542.414 61.7862C542.121 61.4615 541.894 61.0701 541.734 60.6121C541.578 60.1496 541.5 59.6315 541.5 59.0578V58.5374C541.5 57.9637 541.58 57.4478 541.74 56.9898C541.9 56.5273 542.132 56.1337 542.434 55.809C542.736 55.4799 543.097 55.2309 543.515 55.0619C543.937 54.8884 544.411 54.8017 544.936 54.8017C545.625 54.8017 546.205 54.9196 546.677 55.1553C547.148 55.3865 547.515 55.709 547.777 56.1226C548.04 56.5362 548.198 57.0098 548.251 57.5435H546.643C546.617 57.2544 546.543 57.0009 546.423 56.783C546.303 56.5606 546.123 56.3872 545.883 56.2626C545.643 56.1381 545.327 56.0759 544.936 56.0759C544.633 56.0759 544.369 56.1292 544.142 56.236C543.915 56.3383 543.724 56.4939 543.568 56.7029C543.417 56.912 543.301 57.1699 543.221 57.4768C543.146 57.7792 543.108 58.1305 543.108 58.5308V59.0578C543.108 59.4491 543.141 59.7982 543.208 60.1051C543.279 60.4075 543.388 60.6632 543.535 60.8722C543.681 61.0813 543.868 61.2414 544.095 61.3525C544.326 61.4593 544.6 61.5126 544.916 61.5126C545.294 61.5126 545.603 61.4615 545.843 61.3592C546.083 61.2525 546.268 61.0924 546.397 60.8789C546.526 60.6654 546.603 60.4031 546.63 60.0917ZM556.223 58.6108V58.9844C556.223 59.5759 556.138 60.1051 555.969 60.572C555.8 61.039 555.56 61.4393 555.249 61.7728C554.942 62.1019 554.573 62.3532 554.141 62.5266C553.71 62.7001 553.234 62.7868 552.714 62.7868C552.194 62.7868 551.718 62.7001 551.286 62.5266C550.855 62.3532 550.481 62.1019 550.166 61.7728C549.85 61.4393 549.605 61.039 549.432 60.572C549.263 60.1051 549.178 59.5759 549.178 58.9844V58.6108C549.178 58.0193 549.263 57.4901 549.432 57.0231C549.605 56.5562 549.848 56.1559 550.159 55.8224C550.47 55.4888 550.842 55.2353 551.273 55.0619C551.704 54.8884 552.18 54.8017 552.701 54.8017C553.225 54.8017 553.701 54.8884 554.128 55.0619C554.56 55.2353 554.931 55.4888 555.242 55.8224C555.558 56.1559 555.8 56.5562 555.969 57.0231C556.138 57.4901 556.223 58.0193 556.223 58.6108ZM554.615 58.9844V58.5975C554.615 58.1928 554.573 57.8348 554.488 57.5234C554.404 57.2121 554.277 56.9498 554.108 56.7363C553.944 56.5228 553.743 56.3605 553.508 56.2493C553.272 56.1381 553.003 56.0825 552.701 56.0825C552.403 56.0825 552.134 56.1381 551.893 56.2493C551.658 56.3605 551.458 56.5228 551.293 56.7363C551.133 56.9498 551.008 57.2121 550.919 57.5234C550.835 57.8348 550.793 58.1928 550.793 58.5975V58.9844C550.793 59.3846 550.835 59.7426 550.919 60.0584C551.008 60.3697 551.135 60.6343 551.3 60.8522C551.469 61.0657 551.671 61.2302 551.907 61.3459C552.147 61.4571 552.416 61.5126 552.714 61.5126C553.016 61.5126 553.283 61.4571 553.514 61.3459C553.75 61.2302 553.95 61.0657 554.115 60.8522C554.279 60.6343 554.404 60.3697 554.488 60.0584C554.573 59.7426 554.615 59.3846 554.615 58.9844ZM557.537 54.9085H560.599C561.075 54.9085 561.502 54.9596 561.88 55.0619C562.258 55.1642 562.578 55.3154 562.84 55.5155C563.107 55.7112 563.31 55.9558 563.447 56.2493C563.59 56.5384 563.661 56.8741 563.661 57.2566C563.661 57.6791 563.585 58.0416 563.434 58.344C563.283 58.6419 563.069 58.8888 562.794 59.0844C562.518 59.2801 562.193 59.438 561.82 59.5581L561.306 59.8383H558.604L558.591 58.5574H560.619C560.939 58.5574 561.204 58.5085 561.413 58.4107C561.622 58.3128 561.78 58.1772 561.886 58.0038C561.993 57.8259 562.046 57.6213 562.046 57.39C562.046 57.1454 561.993 56.9342 561.886 56.7563C561.784 56.574 561.624 56.4339 561.406 56.336C561.193 56.2382 560.924 56.1893 560.599 56.1893H559.151V62.6801H557.537V54.9085ZM562.247 62.6801L560.325 59.2379L562.026 59.2245L563.981 62.6067V62.6801H562.247ZM570.592 61.4059V62.6801H566.142V61.4059H570.592ZM566.649 54.9085V62.6801H565.042V54.9085H566.649ZM570.018 58.0238V59.2979H566.142V58.0238H570.018ZM570.579 54.9085V56.1893H566.142V54.9085H570.579Z" fill="#949494"/>
<path d="M52.1956 127.851L50.9148 127.544L51.4084 123.588H56.1448V124.889H52.7426L52.5091 126.557C52.6292 126.504 52.8115 126.441 53.0561 126.37C53.3052 126.299 53.5809 126.263 53.8833 126.263C54.4392 126.263 54.9151 126.366 55.3109 126.57C55.7067 126.77 56.0091 127.062 56.2182 127.444C56.4316 127.822 56.5384 128.28 56.5384 128.818C56.5384 129.285 56.4338 129.721 56.2248 130.126C56.0158 130.526 55.6956 130.851 55.2642 131.1C54.8373 131.344 54.2925 131.467 53.6298 131.467C53.1362 131.467 52.6715 131.38 52.2356 131.207C51.7998 131.033 51.4418 130.78 51.1616 130.446C50.8859 130.113 50.7347 129.706 50.708 129.225H52.2957C52.3312 129.559 52.4691 129.803 52.7093 129.959C52.9494 130.115 53.2563 130.193 53.6298 130.193C53.9412 130.193 54.1924 130.133 54.3837 130.012C54.5749 129.888 54.7128 129.721 54.7973 129.512C54.8862 129.299 54.9307 129.059 54.9307 128.792C54.9307 128.525 54.8751 128.289 54.7639 128.085C54.6527 127.876 54.4882 127.713 54.2703 127.598C54.0523 127.482 53.7877 127.424 53.4764 127.424C53.1206 127.424 52.8516 127.471 52.6692 127.564C52.4913 127.653 52.3335 127.749 52.1956 127.851ZM64.7314 126.79V128.158C64.7314 128.723 64.6603 129.214 64.518 129.632C64.3801 130.046 64.1822 130.388 63.9243 130.66C63.6708 130.931 63.3639 131.133 63.0037 131.267C62.6479 131.4 62.2521 131.467 61.8163 131.467C61.3804 131.467 60.9824 131.4 60.6222 131.267C60.2664 131.133 59.9595 130.931 59.7016 130.66C59.4436 130.388 59.2435 130.046 59.1012 129.632C58.9589 129.214 58.8877 128.723 58.8877 128.158V126.79C58.8877 126.226 58.9567 125.736 59.0945 125.323C59.2368 124.909 59.437 124.567 59.6949 124.296C59.9528 124.02 60.2597 123.815 60.6155 123.682C60.9713 123.548 61.3671 123.482 61.8029 123.482C62.2387 123.482 62.6368 123.548 62.997 123.682C63.3572 123.815 63.6663 124.02 63.9243 124.296C64.1822 124.567 64.3801 124.909 64.518 125.323C64.6603 125.736 64.7314 126.226 64.7314 126.79ZM63.1171 128.285V126.65C63.1171 126.326 63.0882 126.046 63.0304 125.81C62.9725 125.57 62.888 125.372 62.7769 125.216C62.6657 125.06 62.5278 124.947 62.3633 124.876C62.2032 124.8 62.0164 124.762 61.8029 124.762C61.5983 124.762 61.4138 124.8 61.2492 124.876C61.0891 124.947 60.9535 125.06 60.8423 125.216C60.7311 125.372 60.6466 125.57 60.5888 125.81C60.531 126.046 60.5021 126.326 60.5021 126.65V128.285C60.5021 128.614 60.531 128.898 60.5888 129.139C60.6466 129.379 60.7311 129.577 60.8423 129.732C60.9579 129.888 61.098 130.004 61.2626 130.079C61.4271 130.155 61.6117 130.193 61.8163 130.193C62.0253 130.193 62.2098 130.155 62.3699 130.079C62.5345 130.004 62.6723 129.888 62.7835 129.732C62.8947 129.577 62.977 129.379 63.0304 129.139C63.0882 128.898 63.1171 128.614 63.1171 128.285Z" fill="#949494"/>
<path d="M86.7939 126.36H71.8899" stroke="black" stroke-width="1.242"/>
<path d="M56.7318 165.701V166.982H50.4345L50.3678 165.975L54.0635 160.885H55.3243L53.9367 163.146L51.9821 165.701H56.7318ZM55.6978 160.885V168.656H54.0901V160.885H55.6978ZM64.7314 164.087V165.454C64.7314 166.019 64.6603 166.511 64.518 166.929C64.3801 167.342 64.1822 167.685 63.9243 167.956C63.6708 168.227 63.3639 168.43 63.0037 168.563C62.6479 168.697 62.2521 168.763 61.8163 168.763C61.3804 168.763 60.9824 168.697 60.6222 168.563C60.2664 168.43 59.9595 168.227 59.7016 167.956C59.4436 167.685 59.2435 167.342 59.1012 166.929C58.9589 166.511 58.8877 166.019 58.8877 165.454V164.087C58.8877 163.522 58.9567 163.033 59.0945 162.619C59.2368 162.206 59.437 161.863 59.6949 161.592C59.9528 161.316 60.2597 161.112 60.6155 160.978C60.9713 160.845 61.3671 160.778 61.8029 160.778C62.2387 160.778 62.6368 160.845 62.997 160.978C63.3572 161.112 63.6663 161.316 63.9243 161.592C64.1822 161.863 64.3801 162.206 64.518 162.619C64.6603 163.033 64.7314 163.522 64.7314 164.087ZM63.1171 165.581V163.947C63.1171 163.622 63.0882 163.342 63.0304 163.106C62.9725 162.866 62.888 162.668 62.7769 162.513C62.6657 162.357 62.5278 162.244 62.3633 162.172C62.2032 162.097 62.0164 162.059 61.8029 162.059C61.5983 162.059 61.4138 162.097 61.2492 162.172C61.0891 162.244 60.9535 162.357 60.8423 162.513C60.7311 162.668 60.6466 162.866 60.5888 163.106C60.531 163.342 60.5021 163.622 60.5021 163.947V165.581C60.5021 165.91 60.531 166.195 60.5888 166.435C60.6466 166.675 60.7311 166.873 60.8423 167.029C60.9579 167.184 61.098 167.3 61.2626 167.376C61.4271 167.451 61.6117 167.489 61.8163 167.489C62.0253 167.489 62.2098 167.451 62.3699 167.376C62.5345 167.3 62.6723 167.184 62.7835 167.029C62.8947 166.873 62.977 166.675 63.0304 166.435C63.0882 166.195 63.1171 165.91 63.1171 165.581Z" fill="#949494"/>
<path d="M86.7939 163.656H71.8899" stroke="black" stroke-width="1.242"/>
<path d="M52.4491 201.423H53.2896C53.6054 201.423 53.8656 201.379 54.0701 201.29C54.2747 201.197 54.4259 201.07 54.5237 200.91C54.626 200.75 54.6772 200.565 54.6772 200.356C54.6772 200.165 54.6327 199.994 54.5438 199.842C54.4593 199.691 54.3236 199.571 54.1368 199.482C53.9545 199.393 53.7143 199.349 53.4164 199.349C53.1762 199.349 52.9605 199.384 52.7693 199.456C52.5825 199.527 52.4335 199.629 52.3223 199.762C52.2112 199.896 52.1556 200.056 52.1556 200.243H50.5412C50.5412 199.794 50.668 199.409 50.9215 199.089C51.1794 198.764 51.5218 198.515 51.9488 198.342C52.3802 198.164 52.8582 198.075 53.383 198.075C53.8144 198.075 54.208 198.121 54.5638 198.215C54.9196 198.308 55.2264 198.448 55.4844 198.635C55.7467 198.822 55.9469 199.053 56.0847 199.329C56.2226 199.605 56.2915 199.923 56.2915 200.283C56.2915 200.545 56.2315 200.792 56.1114 201.023C55.9913 201.25 55.8135 201.452 55.5777 201.63C55.342 201.808 55.0552 201.948 54.7172 202.051C54.3792 202.148 53.9967 202.197 53.5698 202.197H52.4491V201.423ZM52.4491 202.564V201.797H53.5698C54.0546 201.797 54.477 201.842 54.8373 201.93C55.1975 202.019 55.4955 202.148 55.7312 202.317C55.9669 202.486 56.1426 202.695 56.2582 202.944C56.3738 203.189 56.4316 203.467 56.4316 203.778C56.4316 204.143 56.356 204.468 56.2048 204.752C56.0536 205.032 55.8379 205.27 55.5577 205.466C55.282 205.662 54.9596 205.811 54.5905 205.913C54.2213 206.011 53.8211 206.06 53.3897 206.06C53.0161 206.06 52.6537 206.015 52.3023 205.926C51.9555 205.837 51.6397 205.7 51.3551 205.513C51.0749 205.321 50.8503 205.081 50.6813 204.792C50.5168 204.503 50.4345 204.159 50.4345 203.758H52.0488C52.0488 203.954 52.1067 204.13 52.2223 204.285C52.3379 204.441 52.5002 204.563 52.7093 204.652C52.9183 204.741 53.1651 204.786 53.4497 204.786C53.7477 204.786 53.999 204.741 54.2035 204.652C54.4081 204.559 54.5615 204.432 54.6638 204.272C54.7661 204.107 54.8173 203.916 54.8173 203.698C54.8173 203.498 54.7817 203.327 54.7105 203.185C54.6394 203.038 54.5371 202.92 54.4037 202.831C54.2747 202.738 54.1146 202.671 53.9234 202.631C53.7366 202.586 53.5253 202.564 53.2896 202.564H52.4491ZM64.7314 201.383V202.751C64.7314 203.316 64.6603 203.807 64.518 204.225C64.3801 204.639 64.1822 204.981 63.9243 205.253C63.6708 205.524 63.3639 205.726 63.0037 205.86C62.6479 205.993 62.2521 206.06 61.8163 206.06C61.3804 206.06 60.9824 205.993 60.6222 205.86C60.2664 205.726 59.9595 205.524 59.7016 205.253C59.4436 204.981 59.2435 204.639 59.1012 204.225C58.9589 203.807 58.8877 203.316 58.8877 202.751V201.383C58.8877 200.819 58.9567 200.329 59.0945 199.916C59.2368 199.502 59.437 199.16 59.6949 198.889C59.9528 198.613 60.2597 198.408 60.6155 198.275C60.9713 198.141 61.3671 198.075 61.8029 198.075C62.2387 198.075 62.6368 198.141 62.997 198.275C63.3572 198.408 63.6663 198.613 63.9243 198.889C64.1822 199.16 64.3801 199.502 64.518 199.916C64.6603 200.329 64.7314 200.819 64.7314 201.383ZM63.1171 202.878V201.243C63.1171 200.919 63.0882 200.639 63.0304 200.403C62.9725 200.163 62.888 199.965 62.7769 199.809C62.6657 199.653 62.5278 199.54 62.3633 199.469C62.2032 199.393 62.0164 199.355 61.8029 199.355C61.5983 199.355 61.4138 199.393 61.2492 199.469C61.0891 199.54 60.9535 199.653 60.8423 199.809C60.7311 199.965 60.6466 200.163 60.5888 200.403C60.531 200.639 60.5021 200.919 60.5021 201.243V202.878C60.5021 203.207 60.531 203.491 60.5888 203.732C60.6466 203.972 60.7311 204.17 60.8423 204.325C60.9579 204.481 61.098 204.597 61.2626 204.672C61.4271 204.748 61.6117 204.786 61.8163 204.786C62.0253 204.786 62.2098 204.748 62.3699 204.672C62.5345 204.597 62.6723 204.481 62.7835 204.325C62.8947 204.17 62.977 203.972 63.0304 203.732C63.0882 203.491 63.1171 203.207 63.1171 202.878Z" fill="#949494"/>
<path d="M86.7939 200.953H71.8899" stroke="black" stroke-width="1.242"/>
<path d="M56.5784 241.975V243.25H50.648V242.162L53.4831 239.507C53.7766 239.236 54.0079 238.993 54.1769 238.78C54.3503 238.562 54.4748 238.366 54.5504 238.193C54.626 238.015 54.6638 237.855 54.6638 237.713C54.6638 237.401 54.5615 237.146 54.357 236.946C54.1524 236.745 53.8589 236.645 53.4764 236.645C53.1607 236.645 52.8983 236.703 52.6892 236.819C52.4847 236.93 52.3335 237.083 52.2356 237.279C52.1378 237.475 52.0889 237.697 52.0889 237.946H50.4745C50.4745 237.475 50.5924 237.043 50.8281 236.652C51.0638 236.261 51.4018 235.949 51.842 235.718C52.2868 235.487 52.8182 235.371 53.4364 235.371C54.0323 235.371 54.5415 235.465 54.964 235.651C55.391 235.838 55.7156 236.107 55.938 236.459C56.1603 236.805 56.2715 237.217 56.2715 237.693C56.2715 237.955 56.227 238.204 56.1381 238.44C56.0536 238.675 55.9291 238.905 55.7645 239.127C55.6 239.349 55.3999 239.576 55.1642 239.807C54.9284 240.039 54.6616 240.285 54.3636 240.548L52.7093 241.975H56.5784ZM64.7314 238.68V240.047C64.7314 240.612 64.6603 241.104 64.518 241.522C64.3801 241.935 64.1822 242.278 63.9243 242.549C63.6708 242.82 63.3639 243.023 63.0037 243.156C62.6479 243.29 62.2521 243.356 61.8163 243.356C61.3804 243.356 60.9824 243.29 60.6222 243.156C60.2664 243.023 59.9595 242.82 59.7016 242.549C59.4436 242.278 59.2435 241.935 59.1012 241.522C58.9589 241.104 58.8877 240.612 58.8877 240.047V238.68C58.8877 238.115 58.9567 237.626 59.0945 237.212C59.2368 236.799 59.437 236.456 59.6949 236.185C59.9528 235.909 60.2597 235.705 60.6155 235.571C60.9713 235.438 61.3671 235.371 61.8029 235.371C62.2387 235.371 62.6368 235.438 62.997 235.571C63.3572 235.705 63.6663 235.909 63.9243 236.185C64.1822 236.456 64.3801 236.799 64.518 237.212C64.6603 237.626 64.7314 238.115 64.7314 238.68ZM63.1171 240.174V238.54C63.1171 238.215 63.0882 237.935 63.0304 237.699C62.9725 237.459 62.888 237.261 62.7769 237.106C62.6657 236.95 62.5278 236.837 62.3633 236.765C62.2032 236.69 62.0164 236.652 61.8029 236.652C61.5983 236.652 61.4138 236.69 61.2492 236.765C61.0891 236.837 60.9535 236.95 60.8423 237.106C60.7311 237.261 60.6466 237.459 60.5888 237.699C60.531 237.935 60.5021 238.215 60.5021 238.54V240.174C60.5021 240.503 60.531 240.788 60.5888 241.028C60.6466 241.268 60.7311 241.466 60.8423 241.622C60.9579 241.777 61.098 241.893 61.2626 241.969C61.4271 242.044 61.6117 242.082 61.8163 242.082C62.0253 242.082 62.2098 242.044 62.3699 241.969C62.5345 241.893 62.6723 241.777 62.7835 241.622C62.8947 241.466 62.977 241.268 63.0304 241.028C63.0882 240.788 63.1171 240.503 63.1171 240.174Z" fill="#949494"/>
<path d="M86.7939 238.25H71.8899" stroke="black" stroke-width="1.242"/>
<path d="M54.7572 272.774V280.546H53.1495V274.642L51.0415 275.196V273.928L54.5771 272.774H54.7572ZM64.7314 275.976V277.344C64.7314 277.909 64.6603 278.4 64.518 278.818C64.3801 279.232 64.1822 279.574 63.9243 279.846C63.6708 280.117 63.3639 280.319 63.0037 280.453C62.6479 280.586 62.2521 280.653 61.8163 280.653C61.3804 280.653 60.9824 280.586 60.6222 280.453C60.2664 280.319 59.9595 280.117 59.7016 279.846C59.4436 279.574 59.2435 279.232 59.1012 278.818C58.9589 278.4 58.8877 277.909 58.8877 277.344V275.976C58.8877 275.412 58.9567 274.922 59.0945 274.509C59.2368 274.095 59.437 273.753 59.6949 273.482C59.9528 273.206 60.2597 273.001 60.6155 272.868C60.9713 272.734 61.3671 272.668 61.8029 272.668C62.2387 272.668 62.6368 272.734 62.997 272.868C63.3572 273.001 63.6663 273.206 63.9243 273.482C64.1822 273.753 64.3801 274.095 64.518 274.509C64.6603 274.922 64.7314 275.412 64.7314 275.976ZM63.1171 277.471V275.836C63.1171 275.512 63.0882 275.232 63.0304 274.996C62.9725 274.756 62.888 274.558 62.7769 274.402C62.6657 274.246 62.5278 274.133 62.3633 274.062C62.2032 273.986 62.0164 273.949 61.8029 273.949C61.5983 273.949 61.4138 273.986 61.2492 274.062C61.0891 274.133 60.9535 274.246 60.8423 274.402C60.7311 274.558 60.6466 274.756 60.5888 274.996C60.531 275.232 60.5021 275.512 60.5021 275.836V277.471C60.5021 277.8 60.531 278.084 60.5888 278.325C60.6466 278.565 60.7311 278.763 60.8423 278.918C60.9579 279.074 61.098 279.19 61.2626 279.265C61.4271 279.341 61.6117 279.379 61.8163 279.379C62.0253 279.379 62.2098 279.341 62.3699 279.265C62.5345 279.19 62.6723 279.074 62.7835 278.918C62.8947 278.763 62.977 278.565 63.0304 278.325C63.0882 278.084 63.1171 277.8 63.1171 277.471Z" fill="#949494"/>
<path d="M86.7939 275.546H71.8899" stroke="black" stroke-width="1.242"/>
<path d="M86.7939 118.36V295.966" stroke="black" stroke-width="1.242"/>
<path d="M99.2139 271.272L176.517 253.697L264.569 143.2L342.285 253.697L416.695 208.254L479.53 163.252L558.9 197.875" stroke="#863030" stroke-width="2.484"/>
<path d="M86.7939 296.112H571.32" stroke="#1B1B1B" stroke-width="1.242"/>
<path d="M101.794 296.112V308.532" stroke="#1B1B1B" stroke-width="1.242"/>
<path d="M88.7111 319.97H90.0986L92.3467 325.634L94.5882 319.97H95.9757L92.8938 327.742H91.7931L88.7111 319.97ZM87.9973 319.97H89.3582L89.605 325.607V327.742H87.9973V319.97ZM95.3353 319.97H96.7028V327.742H95.0952V325.607L95.3353 319.97ZM106.303 323.673V324.046C106.303 324.638 106.219 325.167 106.05 325.634C105.881 326.101 105.641 326.501 105.33 326.835C105.023 327.164 104.654 327.415 104.222 327.589C103.791 327.762 103.315 327.849 102.795 327.849C102.274 327.849 101.798 327.762 101.367 327.589C100.936 327.415 100.562 327.164 100.246 326.835C99.9305 326.501 99.6859 326.101 99.5125 325.634C99.3435 325.167 99.259 324.638 99.259 324.046V323.673C99.259 323.081 99.3435 322.552 99.5125 322.085C99.6859 321.618 99.9283 321.218 100.24 320.884C100.551 320.551 100.922 320.297 101.354 320.124C101.785 319.95 102.261 319.864 102.781 319.864C103.306 319.864 103.782 319.95 104.209 320.124C104.64 320.297 105.012 320.551 105.323 320.884C105.639 321.218 105.881 321.618 106.05 322.085C106.219 322.552 106.303 323.081 106.303 323.673ZM104.696 324.046V323.659C104.696 323.255 104.654 322.897 104.569 322.585C104.485 322.274 104.358 322.012 104.189 321.798C104.024 321.585 103.824 321.422 103.588 321.311C103.353 321.2 103.084 321.144 102.781 321.144C102.483 321.144 102.214 321.2 101.974 321.311C101.738 321.422 101.538 321.585 101.374 321.798C101.214 322.012 101.089 322.274 101 322.585C100.916 322.897 100.873 323.255 100.873 323.659V324.046C100.873 324.447 100.916 324.805 101 325.12C101.089 325.432 101.216 325.696 101.38 325.914C101.549 326.128 101.752 326.292 101.987 326.408C102.228 326.519 102.497 326.575 102.795 326.575C103.097 326.575 103.364 326.519 103.595 326.408C103.831 326.292 104.031 326.128 104.195 325.914C104.36 325.696 104.485 325.432 104.569 325.12C104.654 324.805 104.696 324.447 104.696 324.046ZM115.597 319.97V327.742H113.983L110.474 322.385V327.742H108.866V319.97H110.474L113.983 325.327V319.97H115.597Z" fill="#949494"/>
<path d="M180.048 296.112V308.532" stroke="black" stroke-width="1.242"/>
<path d="M172.408 319.97V327.742H170.801V319.97H172.408ZM174.997 319.97V321.251H168.246V319.97H174.997ZM181.929 319.97H183.543V325.094C183.543 325.69 183.406 326.194 183.13 326.608C182.854 327.017 182.478 327.326 182.002 327.535C181.527 327.744 180.984 327.849 180.375 327.849C179.757 327.849 179.207 327.744 178.727 327.535C178.251 327.326 177.878 327.017 177.606 326.608C177.335 326.194 177.199 325.69 177.199 325.094V319.97H178.8V325.094C178.8 325.436 178.863 325.718 178.987 325.941C179.116 326.159 179.298 326.319 179.534 326.421C179.77 326.523 180.05 326.575 180.375 326.575C180.699 326.575 180.977 326.523 181.209 326.421C181.44 326.319 181.618 326.159 181.742 325.941C181.867 325.718 181.929 325.436 181.929 325.094V319.97ZM191.817 326.468V327.742H187.367V326.468H191.817ZM187.874 319.97V327.742H186.266V319.97H187.874ZM191.243 323.086V324.36H187.367V323.086H191.243ZM191.803 319.97V321.251H187.367V319.97H191.803Z" fill="#949494"/>
<path d="M257.303 296.112V308.532" stroke="black" stroke-width="1.242"/>
<path d="M246.621 326.408L248.236 319.97H249.163L249.19 321.278L247.495 327.742H246.535L246.621 326.408ZM245.601 319.97L246.915 326.334L246.935 327.742H245.921L244.033 319.97H245.601ZM250.971 326.328L252.278 319.97H253.839L251.958 327.742H250.951L250.971 326.328ZM249.657 319.97L251.271 326.421L251.344 327.742H250.39L248.696 321.278L248.729 319.97H249.657ZM261.666 326.468V327.742H257.216V326.468H261.666ZM257.723 319.97V327.742H256.115V319.97H257.723ZM261.092 323.086V324.36H257.216V323.086H261.092ZM261.652 319.97V321.251H257.216V319.97H261.652ZM266.49 327.742H264.675L264.689 326.468H266.49C267.001 326.468 267.419 326.374 267.744 326.188C268.069 325.996 268.306 325.721 268.458 325.36C268.613 325 268.691 324.562 268.691 324.046V323.659C268.691 323.272 268.647 322.93 268.558 322.632C268.473 322.33 268.342 322.076 268.164 321.872C267.986 321.667 267.759 321.514 267.484 321.411C267.212 321.305 266.89 321.251 266.516 321.251H264.642V319.97H266.516C267.072 319.97 267.582 320.059 268.044 320.237C268.511 320.415 268.911 320.669 269.245 320.998C269.583 321.322 269.843 321.711 270.025 322.165C270.212 322.619 270.306 323.121 270.306 323.673V324.046C270.306 324.78 270.143 325.425 269.819 325.981C269.498 326.537 269.051 326.97 268.478 327.282C267.908 327.589 267.246 327.742 266.49 327.742ZM265.583 319.97V327.742H263.975V319.97H265.583Z" fill="#949494"/>
<path d="M335.057 296.112V308.532" stroke="black" stroke-width="1.242"/>
<path d="M326.57 319.97V327.742H324.962V319.97H326.57ZM329.158 319.97V321.251H322.407V319.97H329.158ZM337.005 323.279V324.56H332.602V323.279H337.005ZM333.055 319.97V327.742H331.448V319.97H333.055ZM338.179 319.97V327.742H336.571V319.97H338.179ZM345.645 319.97H347.259V325.094C347.259 325.69 347.121 326.194 346.845 326.608C346.57 327.017 346.194 327.326 345.718 327.535C345.242 327.744 344.7 327.849 344.09 327.849C343.472 327.849 342.923 327.744 342.443 327.535C341.967 327.326 341.593 327.017 341.322 326.608C341.051 326.194 340.915 325.69 340.915 325.094V319.97H342.516V325.094C342.516 325.436 342.578 325.718 342.703 325.941C342.832 326.159 343.014 326.319 343.25 326.421C343.485 326.523 343.766 326.575 344.09 326.575C344.415 326.575 344.693 326.523 344.924 326.421C345.155 326.319 345.333 326.159 345.458 325.941C345.582 325.718 345.645 325.436 345.645 325.094V319.97Z" fill="#949494"/>
<path d="M408.812 296.112V308.532" stroke="black" stroke-width="1.242"/>
<path d="M401.286 319.97V327.742H399.678V319.97H401.286ZM404.654 323.272V324.553H400.852V323.272H404.654ZM405.088 319.97V321.251H400.852V319.97H405.088ZM407.371 319.97H410.433C410.908 319.97 411.335 320.021 411.713 320.124C412.091 320.226 412.412 320.377 412.674 320.577C412.941 320.773 413.143 321.018 413.281 321.311C413.423 321.6 413.494 321.936 413.494 322.319C413.494 322.741 413.419 323.103 413.268 323.406C413.116 323.704 412.903 323.951 412.627 324.146C412.352 324.342 412.027 324.5 411.653 324.62L411.14 324.9H408.438L408.425 323.619H410.453C410.773 323.619 411.037 323.57 411.246 323.473C411.455 323.375 411.613 323.239 411.72 323.066C411.827 322.888 411.88 322.683 411.88 322.452C411.88 322.207 411.827 321.996 411.72 321.818C411.618 321.636 411.458 321.496 411.24 321.398C411.026 321.3 410.757 321.251 410.433 321.251H408.985V327.742H407.371V319.97ZM412.08 327.742L410.159 324.3L411.86 324.286L413.815 327.669V327.742H412.08ZM417.838 319.97V327.742H416.224V319.97H417.838Z" fill="#949494"/>
<path d="M482.065 296.112V308.532" stroke="black" stroke-width="1.242"/>
<path d="M475.04 325.707C475.04 325.561 475.013 325.429 474.96 325.314C474.911 325.198 474.824 325.094 474.7 325C474.579 324.902 474.413 324.811 474.199 324.727C473.99 324.642 473.726 324.562 473.405 324.487C472.943 324.375 472.534 324.251 472.178 324.113C471.827 323.971 471.531 323.806 471.291 323.619C471.051 323.433 470.868 323.212 470.744 322.959C470.624 322.705 470.564 322.41 470.564 322.072C470.564 321.747 470.635 321.451 470.777 321.184C470.919 320.913 471.122 320.68 471.384 320.484C471.646 320.284 471.958 320.13 472.318 320.024C472.678 319.917 473.074 319.864 473.505 319.864C474.133 319.864 474.677 319.966 475.14 320.17C475.602 320.375 475.96 320.657 476.214 321.018C476.472 321.373 476.601 321.787 476.601 322.258H474.993C474.993 322.036 474.935 321.836 474.82 321.658C474.708 321.48 474.544 321.338 474.326 321.231C474.108 321.124 473.835 321.071 473.505 321.071C473.19 321.071 472.93 321.118 472.725 321.211C472.52 321.3 472.367 321.418 472.265 321.565C472.167 321.707 472.118 321.863 472.118 322.032C472.118 322.165 472.147 322.285 472.205 322.392C472.267 322.499 472.365 322.596 472.498 322.685C472.632 322.774 472.805 322.859 473.018 322.939C473.232 323.019 473.492 323.097 473.799 323.172C474.257 323.279 474.662 323.406 475.013 323.553C475.364 323.699 475.658 323.873 475.894 324.073C476.129 324.269 476.305 324.5 476.421 324.767C476.541 325.029 476.601 325.329 476.601 325.667C476.601 326.01 476.53 326.317 476.387 326.588C476.245 326.855 476.04 327.082 475.774 327.268C475.511 327.455 475.195 327.6 474.826 327.702C474.457 327.8 474.046 327.849 473.592 327.849C473.192 327.849 472.794 327.8 472.398 327.702C472.007 327.604 471.653 327.453 471.337 327.248C471.022 327.044 470.768 326.784 470.577 326.468C470.39 326.148 470.297 325.772 470.297 325.34H471.911C471.911 325.572 471.951 325.772 472.031 325.941C472.116 326.105 472.234 326.241 472.385 326.348C472.54 326.45 472.725 326.526 472.938 326.575C473.152 326.623 473.388 326.648 473.646 326.648C473.97 326.648 474.235 326.606 474.439 326.521C474.648 326.432 474.8 326.317 474.893 326.174C474.991 326.032 475.04 325.876 475.04 325.707ZM482.339 321.565L480.004 327.742H478.376L481.505 319.97H482.586L482.339 321.565ZM484.494 327.742L482.145 321.551L481.899 319.97H482.999L486.121 327.742H484.494ZM484.394 324.86V326.068H479.951V324.86H484.394ZM491.406 319.97V327.742H489.798V319.97H491.406ZM493.994 319.97V321.251H487.243V319.97H493.994Z" fill="#949494"/>
<path d="M558.32 296.112V308.532" stroke="black" stroke-width="1.242"/>
<path d="M550.621 325.707C550.621 325.561 550.594 325.429 550.541 325.314C550.492 325.198 550.405 325.094 550.281 325C550.161 324.902 549.994 324.811 549.78 324.727C549.571 324.642 549.307 324.562 548.987 324.487C548.524 324.375 548.115 324.251 547.759 324.113C547.408 323.971 547.112 323.806 546.872 323.619C546.632 323.433 546.449 323.212 546.325 322.959C546.205 322.705 546.145 322.41 546.145 322.072C546.145 321.747 546.216 321.451 546.358 321.184C546.5 320.913 546.703 320.68 546.965 320.484C547.228 320.284 547.539 320.13 547.899 320.024C548.259 319.917 548.655 319.864 549.087 319.864C549.714 319.864 550.258 319.966 550.721 320.17C551.183 320.375 551.541 320.657 551.795 321.018C552.053 321.373 552.182 321.787 552.182 322.258H550.574C550.574 322.036 550.516 321.836 550.401 321.658C550.29 321.48 550.125 321.338 549.907 321.231C549.689 321.124 549.416 321.071 549.087 321.071C548.771 321.071 548.511 321.118 548.306 321.211C548.102 321.3 547.948 321.418 547.846 321.565C547.748 321.707 547.699 321.863 547.699 322.032C547.699 322.165 547.728 322.285 547.786 322.392C547.848 322.499 547.946 322.596 548.079 322.685C548.213 322.774 548.386 322.859 548.6 322.939C548.813 323.019 549.073 323.097 549.38 323.172C549.838 323.279 550.243 323.406 550.594 323.553C550.946 323.699 551.239 323.873 551.475 324.073C551.71 324.269 551.886 324.5 552.002 324.767C552.122 325.029 552.182 325.329 552.182 325.667C552.182 326.01 552.111 326.317 551.968 326.588C551.826 326.855 551.622 327.082 551.355 327.268C551.092 327.455 550.777 327.6 550.407 327.702C550.038 327.8 549.627 327.849 549.173 327.849C548.773 327.849 548.375 327.8 547.979 327.702C547.588 327.604 547.234 327.453 546.919 327.248C546.603 327.044 546.349 326.784 546.158 326.468C545.971 326.148 545.878 325.772 545.878 325.34H547.492C547.492 325.572 547.532 325.772 547.612 325.941C547.697 326.105 547.815 326.241 547.966 326.348C548.122 326.45 548.306 326.526 548.52 326.575C548.733 326.623 548.969 326.648 549.227 326.648C549.551 326.648 549.816 326.606 550.021 326.521C550.23 326.432 550.381 326.317 550.474 326.174C550.572 326.032 550.621 325.876 550.621 325.707ZM559.334 319.97H560.949V325.094C560.949 325.69 560.811 326.194 560.535 326.608C560.259 327.017 559.884 327.326 559.408 327.535C558.932 327.744 558.389 327.849 557.78 327.849C557.162 327.849 556.613 327.744 556.132 327.535C555.656 327.326 555.283 327.017 555.012 326.608C554.74 326.194 554.605 325.69 554.605 325.094V319.97H556.206V325.094C556.206 325.436 556.268 325.718 556.392 325.941C556.521 326.159 556.704 326.319 556.939 326.421C557.175 326.523 557.455 326.575 557.78 326.575C558.105 326.575 558.383 326.523 558.614 326.421C558.845 326.319 559.023 326.159 559.148 325.941C559.272 325.718 559.334 325.436 559.334 325.094V319.97ZM570.403 319.97V327.742H568.788L565.279 322.385V327.742H563.672V319.97H565.279L568.788 325.327V319.97H570.403Z" fill="#949494"/>
</svg>
