<svg width="1440" height="512" viewBox="0 0 1440 512" fill="none" xmlns="http://www.w3.org/2000/svg">
<path d="M1029.9 8.53828C1106.88 43.0097 1320.95 64.3636 1373.51 61.1407" stroke="#232323" stroke-width="25" stroke-linecap="round" stroke-linejoin="round"/>
<path d="M1263.13 -90.0853C1069.38 195.915 1051.57 329.221 1019.03 537.879" stroke="#232323" stroke-width="25" stroke-linecap="round" stroke-linejoin="round"/>
<path d="M1294.47 200.888C1060.36 443.848 798.051 518.922 766.174 433.23C699.678 216.548 1301.14 172.792 1375.1 327.253C1452.47 498.248 1135.01 627.721 1133.77 612.948" stroke="#232323" stroke-width="25" stroke-linecap="round" stroke-linejoin="round"/>
<path d="M41.811 30.6204C86.4182 20.1282 165.103 16.5434 174.532 21.1736C182.656 21.8119 165.877 56.0853 160.001 65.8707" stroke="#232323" stroke-width="15" stroke-linecap="round" stroke-linejoin="round"/>
<path d="M60.2482 380.797C104.625 432.844 203.832 196.655 286.181 103.286C252.043 304.171 262.146 517.183 252.144 692.203" stroke="#232323" stroke-width="15" stroke-linecap="round" stroke-linejoin="round"/>
<path d="M250.987 689.771C279.251 548.152 308.246 378.116 364.484 370.295C420.591 375.257 387.122 497.28 472.669 526.64C545.231 530.726 594.426 481.143 651.551 436.568" stroke="#232323" stroke-width="15" stroke-linecap="round" stroke-linejoin="round"/>
<path d="M560.028 197.536C603.866 143.409 648.784 119.764 671.312 135.461C689.549 143.429 687.538 289.944 664.395 359.838" stroke="#232323" stroke-width="12" stroke-linecap="round" stroke-linejoin="round"/>
<path d="M577.585 34.7063C595.188 39.9412 612.606 48.2596 617.5 56.5461C619.417 62.5314 613.788 73.1556 606.879 78.2869" stroke="#232323" stroke-width="12" stroke-linecap="round" stroke-linejoin="round"/>
</svg>
