<?xml version="1.0" encoding="UTF-8"?>
<svg id="Layer_1" data-name="Layer 1" xmlns="http://www.w3.org/2000/svg" viewBox="0 0 512.5 512.71">
  <defs>
    <style>
      .cls-1 {
        stroke: #000;
        stroke-miterlimit: 10;
      }
    </style>
  </defs>
  <polygon class="cls-1" points="320.5 160.71 320.5 64.71 256.5 .71 192.5 64.71 192.5 96.71 320.5 160.71"/>
  <polyline class="cls-1" points="320.5 192.71 192.5 128.71 192.5 192.71 320.5 256.71 320.5 192.71"/>
  <path class="cls-1" d="m67.15,224.71c7.36-43.87,29.59-82.69,61.34-111.11V34.96C51.98,79.22.5,161.95.5,256.71s51.48,177.49,128,221.75v-78.65c-31.75-28.42-53.99-67.24-61.35-111.1h125.35s128,64,128,64v-64l-128-64h-125.34"/>
  <path d="m320.5,384.71l-128-64v183.93c20.46,5.27,41.9,8.07,64,8.07,141.38,0,256-114.62,256-256h-64c0,83.6-53.43,154.72-128,181.07h0v-53.07Z"/>
</svg>