<svg width="24" height="24" viewBox="0 0 24 24" fill="none" xmlns="http://www.w3.org/2000/svg">
<path d="M17.3006 10.5H23.1986C23.2699 10.5 23.3397 10.5204 23.3998 10.5586C23.4599 10.5969 23.5079 10.6514 23.5381 10.716C23.5683 10.7805 23.5795 10.8523 23.5704 10.923C23.5613 10.9936 23.5322 11.0603 23.4866 11.115L20.5376 14.655C20.5024 14.6972 20.4584 14.7312 20.4086 14.7545C20.3589 14.7778 20.3046 14.7898 20.2496 14.7898C20.1947 14.7898 20.1404 14.7778 20.0906 14.7545C20.0409 14.7312 19.9968 14.6972 19.9616 14.655L17.0126 11.115C16.967 11.0603 16.938 10.9936 16.9289 10.923C16.9197 10.8523 16.931 10.7805 16.9612 10.716C16.9914 10.6514 17.0394 10.5969 17.0995 10.5586C17.1596 10.5204 17.2294 10.5 17.3006 10.5ZM0.800641 13.5H6.69864C6.7699 13.5 6.83967 13.4797 6.89979 13.4414C6.95991 13.4032 7.00789 13.3486 7.03811 13.284C7.06833 13.2195 7.07953 13.1477 7.07042 13.077C7.06131 13.0064 7.03224 12.9398 6.98664 12.885L4.03764 9.34501C4.00245 9.3028 3.95841 9.26885 3.90864 9.24555C3.85887 9.22225 3.80459 9.21017 3.74964 9.21017C3.69469 9.21017 3.64041 9.22225 3.59064 9.24555C3.54087 9.26885 3.49683 9.3028 3.46164 9.34501L0.512641 12.885C0.467037 12.9398 0.437977 13.0064 0.428862 13.077C0.419747 13.1477 0.430956 13.2195 0.461175 13.284C0.491394 13.3486 0.539372 13.4032 0.599493 13.4414C0.659613 13.4797 0.729386 13.5 0.800641 13.5Z" fill="white"/>
<path fill-rule="evenodd" clip-rule="evenodd" d="M11.9995 4.50001C9.67152 4.50001 7.58952 5.56051 6.21402 7.22701C6.1526 7.30662 6.0758 7.37307 5.98819 7.4224C5.90057 7.47174 5.80393 7.50295 5.70401 7.51418C5.60409 7.52541 5.50293 7.51644 5.40655 7.4878C5.31016 7.45915 5.22052 7.41142 5.14296 7.34743C5.06539 7.28345 5.00149 7.20452 4.95504 7.11535C4.90859 7.02617 4.88054 6.92856 4.87257 6.82833C4.8646 6.72809 4.87687 6.62728 4.90864 6.53188C4.94041 6.43649 4.99104 6.34845 5.05752 6.27301C6.15581 4.9433 7.61291 3.95703 9.25552 3.4315C10.8981 2.90596 12.6571 2.86329 14.3233 3.30855C15.9895 3.75381 17.4927 4.66826 18.6541 5.94314C19.8156 7.21803 20.5865 8.79969 20.875 10.5H19.3495C19.0032 8.80623 18.0826 7.284 16.7433 6.19073C15.4041 5.09746 13.7284 4.50023 11.9995 4.50001ZM4.64952 13.5C4.93349 14.8869 5.60405 16.1652 6.58374 17.1872C7.56343 18.2092 8.81226 18.9332 10.186 19.2754C11.5597 19.6177 13.0022 19.5644 14.3469 19.1216C15.6915 18.6788 16.8835 17.8646 17.785 16.773C17.8464 16.6934 17.9232 16.627 18.0109 16.5776C18.0985 16.5283 18.1951 16.4971 18.295 16.4858C18.395 16.4746 18.4961 16.4836 18.5925 16.5122C18.6889 16.5409 18.7785 16.5886 18.8561 16.6526C18.9337 16.7166 18.9976 16.7955 19.044 16.8847C19.0905 16.9739 19.1185 17.0715 19.1265 17.1717C19.1344 17.2719 19.1222 17.3727 19.0904 17.4681C19.0586 17.5635 19.008 17.6516 18.9415 17.727C17.8432 19.0567 16.3861 20.043 14.7435 20.5685C13.1009 21.0941 11.3419 21.1367 9.67576 20.6915C8.0096 20.2462 6.50638 19.3318 5.34491 18.0569C4.18343 16.782 3.41258 15.2003 3.12402 13.5H4.64952Z" fill="white"/>
</svg>
